<svg width="18" height="21" viewBox="0 0 18 21" fill="none" xmlns="http://www.w3.org/2000/svg">
<g clip-path="url(#clip0)">
<path d="M16.3299 16.0282C16.0413 16.696 15.6993 17.3106 15.303 17.8758C14.763 18.6472 14.3194 19.1802 13.9795 19.4769C13.4515 19.9617 12.8842 20.2111 12.2778 20.2252C11.8433 20.2252 11.3183 20.1015 10.7068 19.8501C10.0933 19.5996 9.53005 19.4769 9.01411 19.4769C8.47402 19.4769 7.89471 19.5996 7.27416 19.8501C6.65462 20.1015 6.15376 20.2333 5.77057 20.2453C5.19026 20.2705 4.60994 20.015 4.03164 19.4769C3.66253 19.1551 3.20089 18.6019 2.64672 17.8195C2.05333 16.9857 1.56554 16.0152 1.18336 14.9119C0.77402 13.718 0.568848 12.5634 0.568848 11.445C0.568848 10.1647 0.845428 9.05941 1.3996 8.13412C1.83609 7.38987 2.4154 6.80352 3.13954 6.37306C3.86468 5.94159 4.64916 5.72133 5.49299 5.70725C5.95563 5.70725 6.5621 5.85007 7.31339 6.13168C8.06468 6.41329 8.54744 6.5561 8.75764 6.5561C8.91655 6.5561 9.4506 6.38814 10.3598 6.05524C11.2177 5.74648 11.9418 5.61875 12.5352 5.66903C14.1444 5.79878 15.3523 6.4324 16.1559 7.57493C14.7177 8.44691 14.0066 9.66688 14.0207 11.2328C14.0328 12.4528 14.4763 13.4676 15.3453 14.2732C15.7395 14.6473 16.179 14.936 16.6678 15.1412C16.5612 15.4499 16.4486 15.7446 16.3299 16.0282ZM12.6418 1.51429C12.6418 2.46975 12.2918 3.36286 11.5969 4.18858C10.7561 5.17018 9.74026 5.73843 8.63896 5.64892C8.62488 5.53427 8.61784 5.41358 8.61784 5.28685C8.61784 4.3686 9.01612 3.38699 9.72718 2.5834C10.0812 2.17708 10.5318 1.83814 11.0779 1.5686C11.623 1.30309 12.138 1.15625 12.6227 1.1311C12.6358 1.25984 12.6418 1.38757 12.6418 1.51429Z" fill="white"/>
</g>
<defs>
<clipPath id="clip0">
<rect width="17.2414" height="20" fill="white" transform="translate(0 0.5)"/>
</clipPath>
</defs>
</svg>
