<svg width="19" height="21" viewBox="0 0 19 21" fill="none" xmlns="http://www.w3.org/2000/svg">
<g clip-path="url(#clip0)">
<path d="M10.2897 10.0853L13.484 6.891L3.16657 1.09223C2.48277 0.72279 1.84219 0.670939 1.28046 1.07495L10.2897 10.0853ZM14.0285 13.8251L17.3491 11.9574C17.9973 11.5944 18.3527 11.0802 18.3527 10.5098C18.3527 9.94054 17.9973 9.42526 17.3502 9.0623L14.3439 7.37387L10.9595 10.7572L14.0285 13.8251ZM0.725212 1.86029C0.656076 2.0731 0.617188 2.31075 0.617188 2.57109V18.4561C0.617188 18.8677 0.707928 19.222 0.872126 19.504L9.61889 10.7561L0.725212 1.86029ZM10.2897 11.4259L1.59157 20.1251C1.75793 20.1888 1.93725 20.2223 2.12629 20.2223C2.46333 20.2223 2.81441 20.1229 3.17197 19.9242L13.1697 14.3101L10.2897 11.4259Z" fill="white"/>
</g>
<defs>
<clipPath id="clip0">
<rect width="18.5185" height="20" fill="white" transform="translate(0 0.5)"/>
</clipPath>
</defs>
</svg>
