<svg viewBox="0 0 34 39" width="34" height="39" xmlns="http://www.w3.org/2000/svg"><path d="M13.906 35.782a3.22 3.22 0 0 1 3.755-3.174l2.566-6.104h2.446l-3.566 6.739a3.21 3.21 0 0 1 1.244 2.539A3.22 3.22 0 0 1 17.128 39a3.22 3.22 0 0 1-3.222-3.218zm5.208.009a1.959 1.959 0 0 0-3.919 0 1.959 1.959 0 0 0 3.92 0zM9.978 23.394a1.845 1.845 0 0 1-.808-.808c-.189-.358-.285-.803-.286-1.336v-3.106h1.196v3.075c.002.295.049.542.143.741.093.199.227.35.403.45.174.101.385.151.629.151.245 0 .454-.048.63-.146a.973.973 0 0 0 .402-.436c.095-.194.142-.434.142-.722v-3.113h1.198v3.066c-.003.55-.1 1.005-.293 1.369a1.89 1.89 0 0 1-.825.815c-.357.181-.78.27-1.27.27-.489 0-.91-.09-1.26-.27zm10.438 0a1.845 1.845 0 0 1-.809-.808c-.189-.358-.285-.803-.286-1.336v-3.106h1.196v3.075c.002.295.05.542.144.741.092.199.227.35.402.45.175.101.385.151.629.151.245 0 .454-.048.63-.146a.973.973 0 0 0 .403-.436c.094-.194.141-.434.141-.722v-3.113h1.198v3.066c-.003.55-.1 1.005-.293 1.369a1.89 1.89 0 0 1-.825.815c-.357.181-.779.27-1.269.27-.49 0-.91-.09-1.261-.27zm-15.009.186v-2.143l-2.092-3.293h1.4l1.299 2.182 1.322-2.182h1.36l-2.09 3.27v2.165H5.407zm8.803 0v-.91l2.994-3.477h-2.901v-1.05h4.441v.91l-2.994 3.479h2.994v1.047H14.21zm10.601 0v-5.436h1.29l1.43 2.298 1.43-2.298h1.291v5.436h-1.189V20.03l-1.531 2.321H27.5l-1.517-2.297v3.524H24.81zM0 11.926A4.237 4.237 0 0 1 6.867 8.61l7.65-5.103A2.463 2.463 0 0 1 16.749 0a2.463 2.463 0 0 1 2.464 2.46 2.463 2.463 0 0 1-2.464 2.462c-.445 0-.863-.117-1.223-.323l-6.278 5.07L27 6.192a3.602 3.602 0 0 1 3.4-2.406A3.6 3.6 0 0 1 34 7.382c0 1.94-1.537 3.52-3.46 3.596l-1.995 4.058-.056.109h-3.308l2.466-5.44a3.785 3.785 0 0 1-.2-.261L8.391 12.758A4.237 4.237 0 0 1 0 11.927zm4.878 2.761c.137-.018.417-.115.382-.116.39-.184.482-.24.57-.3.116-.079.22-.161.272-.21.043-.037.045-.038.23-.227.036-.041.108-.128.209-.253.056-.056.206-.303.315-.57.005-.004.006-.008.008-.013a2.833 2.833 0 0 0-1.24-3.545.353.353 0 0 0-.104-.041 1.434 1.434 0 0 0-.434-.175.497.497 0 0 0-.186-.058 2.53 2.53 0 0 0-.663-.087 2.834 2.834 0 1 0 0 5.667c.164 0 .325-.013.64-.072zm1.487-.885l-.032.032c-.04.047-.034.04.032-.032zm26.497-6.42a2.463 2.463 0 0 0-2.464-2.461 2.463 2.463 0 0 0-2.463 2.46 2.463 2.463 0 0 0 2.463 2.461 2.463 2.463 0 0 0 2.464-2.46zM18.076 2.46a1.327 1.327 0 0 0-2.653 0 1.327 1.327 0 0 0 2.653 0z" /></svg>