<svg width="27" height="13" viewBox="0 0 27 13" fill="none" xmlns="http://www.w3.org/2000/svg">
<path d="M1.38757 7.55293C1.44895 7.56289 1.51106 7.56748 1.57321 7.56668H23.6694L23.4387 7.674C23.2131 7.78076 23.0079 7.92605 22.8323 8.1033L19.8648 11.0708C19.474 11.4439 19.4083 12.0441 19.7092 12.4929C20.0593 12.9711 20.7309 13.0749 21.2091 12.7247C21.2478 12.6964 21.2845 12.6656 21.319 12.6324L26.6852 7.26617C27.1046 6.84727 27.105 6.16774 26.6861 5.74837L26.6852 5.74753L21.319 0.381326C20.8993 -0.0372047 20.2198 -0.0362663 19.8012 0.383438C19.7683 0.416473 19.7375 0.451623 19.7092 0.488649C19.4083 0.937432 19.474 1.53761 19.8648 1.91069L22.8269 4.88357C22.9844 5.04121 23.1654 5.17338 23.3635 5.27531L23.6855 5.4202H1.63227C1.08401 5.39984 0.602997 5.78282 0.5 6.32172C0.405119 6.9068 0.802486 7.45801 1.38757 7.55293Z" fill="white"/>
</svg>
