<svg width="171" height="45" viewBox="0 0 171 45" fill="none" xmlns="http://www.w3.org/2000/svg">
<g clip-path="url(#clip0)">
<path d="M34.842 23.585H40.1151V36.211H34.842V23.585Z" fill="white"/>
<path d="M24.8562 23.585H30.1296V36.211H24.8562V23.585Z" fill="white"/>
<path d="M14.8704 23.585H20.1438V36.211H14.8704V23.585Z" fill="white"/>
<path d="M4.88477 23.585H10.1579V36.211H4.88477V23.585Z" fill="white"/>
<path d="M41.8733 19.6299V18.3115H3.12695V19.6299C3.12695 20.3581 3.71712 20.9482 4.44531 20.9482H40.555C41.2828 20.9482 41.8733 20.3581 41.8733 19.6299Z" fill="white"/>
<path d="M43.681 38.8477H1.31982C0.591637 38.8477 0.00146484 39.4378 0.00146484 40.166V43.6816C0.00146484 44.4098 0.591637 45 1.31982 45H43.681C44.4092 45 44.9994 44.4098 44.9994 43.6816V40.166C44.9994 39.4378 44.4092 38.8477 43.681 38.8477Z" fill="white"/>
<path d="M1.31946 15.6747H43.6827C44.2726 15.6747 44.7906 15.283 44.9513 14.7155C45.1116 14.148 44.8761 13.5427 44.3738 13.2337L23.1922 0.195694C22.7685 -0.0652313 22.234 -0.0652313 21.81 0.195694L0.628354 13.2337C0.126072 13.5431 -0.109447 14.148 0.0512281 14.7155C0.211903 15.283 0.729977 15.6747 1.31946 15.6747ZM21.605 7.75429H23.3975C24.1257 7.75429 24.7159 8.34446 24.7159 9.07265C24.7159 9.80083 24.1257 10.391 23.3975 10.391H21.605C20.8768 10.391 20.2867 9.80083 20.2867 9.07265C20.2867 8.34446 20.8768 7.75429 21.605 7.75429Z" fill="white"/>
</g>
<path d="M59.8276 6.23963C61.4946 6.23963 62.8839 6.81587 63.9952 7.96836C65.1182 9.12085 65.6797 10.5415 65.6797 12.2303C65.6797 13.9191 65.1182 15.3397 63.9952 16.4922C62.8839 17.6447 61.4946 18.221 59.8276 18.221H55V6.23963H59.8276ZM59.8276 15.9616C60.8811 15.9616 61.7377 15.6193 62.3976 14.9346C63.0575 14.2386 63.3875 13.3371 63.3875 12.2303C63.3875 11.1234 63.0575 10.2277 62.3976 9.54305C61.7377 8.84699 60.8811 8.49896 59.8276 8.49896H57.3964V15.9616H59.8276Z" fill="white"/>
<path d="M69.776 15.9616H74.8988V18.221H67.3796V6.23963H74.8119V8.49896H69.776V11.0493H74.3778V13.2744H69.776V15.9616Z" fill="white"/>
<path d="M79.5922 18.221L75.5113 6.23963H78.1161L81.0856 15.4481L84.0377 6.23963H86.6598L82.5616 18.221H79.5922Z" fill="white"/>
<path d="M90.2277 15.9616H94.8643V18.221H87.8313V6.23963H90.2277V15.9616Z" fill="white"/>
<path d="M98.6221 15.9616H103.745V18.221H96.2257V6.23963H103.658V8.49896H98.6221V11.0493H103.224V13.2744H98.6221V15.9616Z" fill="white"/>
<path d="M113.474 6.23963V8.49896H110.192V18.221H107.796V8.49896H104.531V6.23963H113.474Z" fill="white"/>
<path d="M123.304 18.4606C122.1 18.4606 121.087 18.1981 120.265 17.6732C119.443 17.1369 118.864 16.4123 118.528 15.4995L120.577 14.3185C121.052 15.5394 121.984 16.1499 123.373 16.1499C124.045 16.1499 124.537 16.0301 124.849 15.7905C125.162 15.5508 125.318 15.2484 125.318 14.8833C125.318 14.4611 125.127 14.1359 124.745 13.9077C124.363 13.6681 123.68 13.4113 122.696 13.1374C122.152 12.9777 121.689 12.8179 121.307 12.6582C120.936 12.4984 120.56 12.2873 120.178 12.0249C119.807 11.751 119.524 11.4087 119.327 10.9979C119.13 10.5871 119.032 10.1079 119.032 9.56017C119.032 8.47614 119.42 7.61463 120.195 6.97562C120.983 6.32521 121.926 6 123.026 6C124.01 6 124.872 6.23963 125.613 6.71888C126.366 7.18672 126.95 7.84284 127.367 8.68724L125.353 9.83403C124.867 8.80705 124.091 8.29357 123.026 8.29357C122.528 8.29357 122.134 8.40768 121.845 8.63589C121.567 8.8527 121.428 9.13797 121.428 9.4917C121.428 9.86826 121.585 10.1763 121.897 10.416C122.221 10.6442 122.835 10.8952 123.738 11.1691C124.108 11.2832 124.386 11.3745 124.571 11.4429C124.768 11.5 125.029 11.597 125.353 11.7339C125.689 11.8594 125.943 11.9793 126.117 12.0934C126.302 12.2075 126.51 12.3615 126.742 12.5555C126.974 12.7495 127.147 12.9492 127.263 13.1546C127.39 13.36 127.495 13.611 127.576 13.9077C127.668 14.1929 127.714 14.5067 127.714 14.8491C127.714 15.9559 127.303 16.8345 126.482 17.485C125.671 18.1354 124.612 18.4606 123.304 18.4606Z" fill="white"/>
<path d="M136.905 18.221L136.176 16.0643H131.331L130.602 18.221H128.014L132.269 6.23963H135.238L139.51 18.221H136.905ZM132.095 13.8563H135.429L133.762 8.9611L132.095 13.8563Z" fill="white"/>
<path d="M147.359 18.221L144.91 14.0617H143.087V18.221H140.69V6.23963H145.553C146.676 6.23963 147.631 6.62759 148.418 7.40353C149.205 8.17946 149.599 9.11515 149.599 10.2106C149.599 10.9523 149.385 11.6426 148.956 12.2816C148.528 12.9092 147.961 13.3828 147.255 13.7023L149.946 18.221H147.359ZM143.087 8.44761V11.9907H145.553C146.004 11.9907 146.392 11.8195 146.716 11.4772C147.04 11.1234 147.202 10.7012 147.202 10.2106C147.202 9.71992 147.04 9.30342 146.716 8.9611C146.392 8.61878 146.004 8.44761 145.553 8.44761H143.087Z" fill="white"/>
<path d="M159.172 18.221L158.442 16.0643H153.597L152.868 18.221H150.281L154.535 6.23963H157.505L161.776 18.221H159.172ZM154.361 13.8563H157.696L156.029 8.9611L154.361 13.8563Z" fill="white"/>
<path d="M171 6.23963L166.832 13.5482V18.221H164.453V13.5482L160.303 6.23963H163.012L165.651 11.2376L168.291 6.23963H171Z" fill="white"/>
<path d="M66.8953 26.779V38.7604H64.5162V30.9896L61.0952 36.5524H60.8174L57.3964 31.0067V38.7604H55V26.779H57.4659L60.9563 32.4445L64.4294 26.779H66.8953Z" fill="white"/>
<path d="M73.6926 39C72.3381 39 71.2267 38.6234 70.3584 37.8703C69.4901 37.1172 69.056 36.1074 69.056 34.8408V26.779H71.4351V34.6525C71.4351 35.2801 71.6145 35.7765 71.9734 36.1416C72.3439 36.5067 72.9169 36.6893 73.6926 36.6893C74.4682 36.6893 75.0355 36.5067 75.3944 36.1416C75.7648 35.7765 75.9501 35.2801 75.9501 34.6525V26.779H78.3465V34.8408C78.3465 36.1074 77.9123 37.1172 77.0441 37.8703C76.1758 38.6234 75.0586 39 73.6926 39Z" fill="white"/>
<path d="M84.6556 39C83.4516 39 82.4387 38.7376 81.6167 38.2127C80.7948 37.6763 80.2159 36.9518 79.8802 36.0389L81.9293 34.8579C82.4039 36.0788 83.3359 36.6893 84.7251 36.6893C85.3966 36.6893 85.8886 36.5695 86.2012 36.3299C86.5137 36.0902 86.67 35.7879 86.67 35.4227C86.67 35.0005 86.479 34.6753 86.097 34.4471C85.7149 34.2075 85.0319 33.9507 84.0479 33.6769C83.5037 33.5171 83.0407 33.3574 82.6586 33.1976C82.2882 33.0379 81.9119 32.8268 81.5299 32.5643C81.1594 32.2905 80.8758 31.9481 80.679 31.5373C80.4822 31.1266 80.3838 30.6473 80.3838 30.0996C80.3838 29.0156 80.7716 28.154 81.5472 27.515C82.3345 26.8646 83.278 26.5394 84.3778 26.5394C85.3618 26.5394 86.2243 26.779 86.9652 27.2583C87.7177 27.7261 88.3024 28.3823 88.7191 29.2267L86.7048 30.3734C86.2185 29.3465 85.4429 28.833 84.3778 28.833C83.88 28.833 83.4864 28.9471 83.197 29.1753C82.9191 29.3921 82.7802 29.6774 82.7802 30.0311C82.7802 30.4077 82.9365 30.7158 83.2491 30.9554C83.5732 31.1836 84.1868 31.4346 85.0898 31.7085C85.4602 31.8226 85.7381 31.9139 85.9233 31.9824C86.1201 32.0394 86.3806 32.1364 86.7048 32.2733C87.0405 32.3989 87.2952 32.5187 87.4688 32.6328C87.6541 32.7469 87.8624 32.9009 88.094 33.0949C88.3255 33.2889 88.4992 33.4886 88.6149 33.694C88.7423 33.8994 88.8465 34.1504 88.9275 34.4471C89.0201 34.7324 89.0664 35.0462 89.0664 35.3885C89.0664 36.4953 88.6555 37.374 87.8335 38.0244C87.0231 38.6748 85.9638 39 84.6556 39Z" fill="white"/>
<path d="M92.9411 36.501H98.0639V38.7604H90.5447V26.779H97.977V29.0384H92.9411V31.5887H97.5429V33.8138H92.9411V36.501Z" fill="white"/>
<path d="M104.285 39C102.931 39 101.82 38.6234 100.951 37.8703C100.083 37.1172 99.6488 36.1074 99.6488 34.8408V26.779H102.028V34.6525C102.028 35.2801 102.207 35.7765 102.566 36.1416C102.937 36.5067 103.51 36.6893 104.285 36.6893C105.061 36.6893 105.628 36.5067 105.987 36.1416C106.358 35.7765 106.543 35.2801 106.543 34.6525V26.779H108.939V34.8408C108.939 36.1074 108.505 37.1172 107.637 37.8703C106.769 38.6234 105.651 39 104.285 39Z" fill="white"/>
<path d="M122.993 26.779V38.7604H120.614V30.9896L117.193 36.5524H116.916L113.495 31.0067V38.7604H111.098V26.779H113.564L117.054 32.4445L120.528 26.779H122.993Z" fill="white"/>
<defs>
<clipPath id="clip0">
<rect width="45" height="45" fill="white"/>
</clipPath>
</defs>
</svg>
