<svg width="170" height="45" viewBox="0 0 170 45" fill="none" xmlns="http://www.w3.org/2000/svg">
<path d="M87.9315 34.2686L105.888 14.9311H105.807L111.088 10.7874H87.9315V1.28113H123.844V10.9499L106.05 30.5311H106.132L100.769 34.4311H123.844V43.9374H87.9315V34.2686Z" fill="white"/>
<path d="M132.73 4.20613C135.168 3.12279 138.147 2.22904 141.668 1.52488C145.243 0.82071 148.926 0.468627 152.718 0.468627C155.697 0.468627 158.188 0.82071 160.193 1.52488C162.251 2.22904 163.876 3.25821 165.068 4.61238C166.259 5.91238 167.099 7.51029 167.586 9.40613C168.128 11.2478 168.399 13.3061 168.399 15.5811C168.399 18.3436 168.291 21.079 168.074 23.7874C167.857 26.4957 167.749 29.3665 167.749 32.3999C167.749 34.4582 167.884 36.4624 168.155 38.4124C168.426 40.3624 168.859 42.2311 169.455 44.0186H160.193L158.324 37.6811H157.349C155.941 39.577 154.153 41.202 151.986 42.5561C149.82 43.9103 147.03 44.5874 143.618 44.5874C141.559 44.5874 139.663 44.2895 137.93 43.6936C136.251 43.0978 134.788 42.2582 133.543 41.1749C132.351 40.0374 131.403 38.7103 130.699 37.1936C130.049 35.677 129.724 34.0249 129.724 32.2374C129.724 27.4165 131.322 23.7874 134.518 21.3499C137.768 18.8582 142.67 17.6124 149.224 17.6124C150.741 17.6124 152.257 17.7478 153.774 18.0186C155.291 18.2353 156.347 18.3978 156.943 18.5061C157.105 17.3686 157.186 16.3936 157.186 15.5811C157.186 13.5228 156.672 12.0061 155.643 11.0311C154.613 10.0561 152.691 9.56863 149.874 9.56863C147.274 9.56863 144.728 9.89363 142.236 10.5436C139.799 11.1395 137.632 11.8978 135.736 12.8186L132.73 4.20613ZM147.599 35.4874C150.145 35.4874 152.176 34.8915 153.693 33.6999C155.209 32.5082 156.32 31.2624 157.024 29.9624V25.0874C156.753 24.979 156.32 24.8707 155.724 24.7624C155.182 24.654 154.559 24.5457 153.855 24.4374C153.205 24.329 152.528 24.2478 151.824 24.1936C151.174 24.1395 150.578 24.1124 150.036 24.1124C147.111 24.1124 144.945 24.654 143.536 25.7374C142.128 26.7665 141.424 28.0665 141.424 29.6374C141.424 31.5874 141.966 33.0499 143.049 34.0249C144.186 34.9999 145.703 35.4874 147.599 35.4874Z" fill="white"/>
<path d="M44.0254 39.912C48.9466 44.8357 56.4537 45.307 60.7914 40.9694L80.7802 20.9805C85.118 16.6415 84.6454 9.13558 79.7242 4.21051C74.8018 -0.710546 67.2946 -1.1819 62.9569 3.15462L42.9681 23.1434C38.6291 27.4824 39.103 34.9894 44.0254 39.912ZM65.0637 5.26398C68.2333 2.09447 73.8632 2.56973 77.6148 6.31999C81.3651 10.0715 81.8404 15.7003 78.6708 18.8712L70.4975 27.0445L56.8903 13.4373L65.0637 5.26398Z" fill="white"/>
<path d="M0 0.624133C0.890564 0.499308 1.90257 0.395286 3.03601 0.312066C4.20994 0.22885 5.4041 0.166437 6.61851 0.124829C7.87339 0.0832177 9.0878 0.0624129 10.2617 0.0624129C11.4356 0.0208046 12.4881 0 13.4192 0C17.4672 0 20.9283 0.56172 23.8023 1.68516C26.7169 2.76699 29.085 4.28572 30.9066 6.24133C32.7687 8.19695 34.1248 10.527 34.9749 13.2316C35.825 15.9362 36.25 18.8904 36.25 22.0943C36.25 25.0069 35.825 27.8363 34.9749 30.5825C34.1653 33.3287 32.8294 35.7836 30.9673 37.9473C29.1052 40.0693 26.6764 41.7753 23.6809 43.0652C20.6854 44.3551 17.0017 45 12.6298 45C11.9417 45 10.9904 44.9792 9.77596 44.9376C8.60204 44.896 7.36739 44.8336 6.07203 44.7503C4.81714 44.7087 3.62298 44.6463 2.48953 44.5631C1.39657 44.5215 0.566722 44.4591 0 44.3759V0.624133ZM14.0871 8.11373C13.1561 8.11373 12.2048 8.13453 11.2332 8.17614C10.2617 8.17614 9.51284 8.21775 8.9866 8.30097V36.6366C9.189 36.6782 9.4926 36.7198 9.8974 36.7614C10.3427 36.7614 10.788 36.7822 11.2332 36.8239C11.719 36.8239 12.1643 36.8447 12.5691 36.8863C13.0144 36.8863 13.3382 36.8863 13.5406 36.8863C16.1314 36.8863 18.2768 36.4702 19.977 35.638C21.6771 34.8058 23.013 33.7032 23.9845 32.3301C24.9965 30.957 25.7049 29.3967 26.1097 27.6491C26.5145 25.9015 26.7169 24.0915 26.7169 22.2191C26.7169 20.6796 26.5348 19.0777 26.1704 17.4133C25.8061 15.749 25.1382 14.2302 24.1667 12.8571C23.2356 11.4841 21.9605 10.3606 20.3413 9.48682C18.7221 8.57143 16.6374 8.11373 14.0871 8.11373Z" fill="white"/>
</svg>
