<svg width="82" height="50" viewBox="0 0 82 50" fill="none" xmlns="http://www.w3.org/2000/svg">
<path d="M23.5786 16.1794C20.9697 13.5965 17.4747 12.1833 13.8321 12.1833C10.1404 12.1833 6.64541 13.5967 4.03643 16.1794C1.42744 18.7622 0 22.1736 0 25.8284C0 29.4834 1.4276 32.8948 4.03643 35.4775C6.64525 38.0604 10.1404 39.4736 13.8321 39.4736C15.9981 39.4736 18.1146 38.9864 19.9853 38.0603C19.2468 40.7406 16.7364 42.69 13.8321 42.69C12.1585 42.69 10.5833 42.0565 9.40187 40.9357L4.28264 46.2475C6.89147 48.6841 10.2388 50 13.7829 50C17.4747 50 20.9697 48.5867 23.5786 46.0039C26.1875 43.421 27.6151 40.0097 27.6151 36.3548V25.8284C27.6151 22.1736 26.1875 18.7622 23.5786 16.1794ZM13.8321 32.1637C10.288 32.1637 7.38374 29.3373 7.38374 25.8285C7.38374 22.3196 10.288 19.4444 13.8321 19.4444C17.3763 19.4444 20.2312 22.3196 20.2312 25.8284C20.2312 29.3373 17.3271 32.1637 13.8321 32.1637ZM31.5337 39.6199H38.9667V11.5011L31.5337 13.9377V39.6199ZM43.5515 39.6199H50.9845V0.341193L43.5515 2.7778V39.6199ZM54.7817 31.4814C55.5201 33.1384 56.5045 34.649 57.7844 35.9161C59.1134 37.1832 60.5901 38.2066 62.2638 38.8888C63.9866 39.6199 65.8573 39.961 67.7278 39.961C69.5983 39.961 71.4688 39.6199 73.1916 38.8888C74.8653 38.2066 76.3421 37.1832 77.671 35.9161C78.9509 34.6491 79.9355 33.1384 80.674 31.4816C81.4121 29.7758 81.7568 27.9727 81.7568 26.0721V2.43676L74.373 0V13.8403C73.9793 13.6452 73.5853 13.4503 73.1916 13.3042C71.4688 12.5731 69.6475 12.232 67.7278 12.232C65.8573 12.232 63.9866 12.5731 62.2638 13.3042C60.5901 13.9864 59.1134 15.0098 57.7844 16.2769C56.5046 17.5439 55.5201 19.0547 54.7816 20.7114C54.0925 22.4171 53.6988 24.2203 53.6988 26.0721C53.6988 27.9727 54.0925 29.7758 54.7816 31.4814H54.7817ZM67.7276 19.4931C71.3705 19.4931 74.373 22.466 74.373 26.0721C74.373 29.727 71.3703 32.651 67.7278 32.651C64.085 32.651 61.0824 29.727 61.0824 26.0721C61.0824 22.466 64.085 19.4931 67.7278 19.4931H67.7276Z" fill="white"/>
</svg>
