<svg width="237" height="45" viewBox="0 0 237 45" fill="none" xmlns="http://www.w3.org/2000/svg">
<path fill-rule="evenodd" clip-rule="evenodd" d="M48.4822 45H59.4386C60.5343 43.0825 62.5333 42.5348 70.9429 42.5348C73.4092 42.5348 76.3074 42.6155 79.554 42.7059C87.3773 42.9237 97.2231 43.1978 107.921 42.5348L89.5688 5.55684C80.6924 5.50167 75.3161 4.26662 66.8438 2.16232C60.3899 0.800021 55.3943 1.27113 54.222 4.10739C52.9432 1.27113 47.5309 0.800021 41.077 2.16232C32.6048 4.26662 27.2285 5.50167 18.352 5.55684L0 42.5348C10.6978 43.1978 20.5435 42.9237 28.3668 42.7059C31.6133 42.6155 34.5116 42.5348 36.978 42.5348C45.3875 42.5348 47.3866 43.0825 48.4822 45ZM57.7952 41.9869H50.1255C50.0572 41.8676 49.9835 41.7323 49.9027 41.5842C48.8706 39.6915 46.6869 35.687 39.9908 35.687C37.4261 35.687 35.0245 36.3091 31.9749 37.099C26.439 38.533 18.7676 40.5201 4.10849 40.3435L19.9953 7.47442C21.4384 7.46547 22.7593 7.44516 24.0019 7.40588L24.9262 5.28185C30.5902 5.24375 34.5852 4.27032 39.9913 2.81736C43.3273 2.05539 48.5126 0.877949 50.9478 2.81716C51.5244 3.27636 51.7996 3.87046 51.9297 4.70522C52.8815 4.97827 53.5948 5.38724 53.9603 5.96236C54.3259 5.38712 55.0395 4.97809 55.9916 4.70504C56.1217 3.87037 56.3969 3.27633 56.9735 2.81716C59.4087 0.877949 64.5939 2.05539 67.9299 2.81736C73.336 4.27032 77.331 5.24375 82.995 5.28185L83.9194 7.40589C85.1618 7.44517 86.4825 7.46547 87.9254 7.47442L103.812 40.3435C89.1531 40.5201 81.4817 38.533 75.9458 37.099C72.8962 36.3091 70.4946 35.687 67.9299 35.687C61.2337 35.687 59.0501 39.6915 58.018 41.5842C57.9372 41.7323 57.8635 41.8676 57.7952 41.9869Z" fill="white"/>
<path fill-rule="evenodd" clip-rule="evenodd" d="M56.9736 40.0696C58.0692 36.7835 61.3561 32.4001 69.2995 33.4957C71.7811 33.838 74.6101 34.5011 77.7031 35.226C84.511 36.8216 92.5978 38.717 101.073 38.1514L84.3646 3.63866C77.3653 3.59182 73.4385 2.54063 66.9324 0.798926L66.2865 0.626081C60.2605 -0.743391 54.2344 0.0785987 54.2344 3.63866V3.91341C54.2344 0.35335 47.9345 -0.743437 41.9085 0.626036L41.2626 0.798881C34.7564 2.54058 30.8297 3.59177 23.8304 3.63862L7.1218 38.1514C15.5971 38.7169 23.684 36.8216 30.4918 35.226C33.5848 34.501 36.4139 33.8379 38.8954 33.4957C46.8389 32.4 50.1258 37.0566 51.2214 40.0696L56.9736 40.0696ZM12.3263 34.2344L24.9262 5.28185C30.5902 5.24375 34.5852 4.27032 39.9913 2.81736C43.3273 2.05539 48.5126 0.877949 50.9478 2.81716C51.9596 3.62294 52.0434 4.84452 52.0434 7.05244V32.9477C48.2086 28.8391 42.7304 28.1797 36.4305 29.113C34.1413 29.4521 31.6712 30.221 28.9678 31.0626C24.2313 32.537 18.7784 34.2344 12.3263 34.2344ZM95.5936 34.2315L95.5949 34.2344C91.8321 34.2344 88.4845 33.6039 85.4122 32.7831C83.3207 32.2527 81.3561 31.6411 79.5013 31.0637C77.353 30.395 75.352 29.7721 73.4721 29.3743C72.8075 29.2552 72.1479 29.1656 71.4908 29.113C65.6321 28.6443 62.1795 28.9776 58.0451 31.4851C57.4774 31.9147 56.9369 32.4011 56.4257 32.9489V32.552C56.245 32.6798 56.0625 32.8117 55.8779 32.9477V7.05244C55.8779 4.84452 55.9616 3.62294 56.9735 2.81716C58.0187 1.98484 59.5705 1.72711 61.2652 1.7638C63.6526 1.71947 66.4177 2.34842 68.4778 2.81895C73.8839 4.27191 77.8788 5.24534 83.5428 5.28343L96.1427 34.2356C95.9589 34.2356 95.7759 34.2342 95.5936 34.2315Z" fill="white"/>
<path d="M124.454 5.996C126.134 5.996 127.535 6.58523 128.655 7.76369C129.786 8.94214 130.352 10.3948 130.352 12.1216C130.352 13.8485 129.786 15.3011 128.655 16.4796C127.535 17.6581 126.134 18.2473 124.454 18.2473H119.589V5.996H124.454ZM124.454 15.937C125.516 15.937 126.379 15.587 127.044 14.8869C127.71 14.1752 128.042 13.2534 128.042 12.1216C128.042 10.9899 127.71 10.0739 127.044 9.37386C126.379 8.66211 125.516 8.30624 124.454 8.30624H122.004V15.937H124.454Z" fill="white"/>
<path d="M134.481 15.937H139.644V18.2473H132.066V5.996H139.556V8.30624H134.481V10.914H139.119V13.1893H134.481V15.937Z" fill="white"/>
<path d="M144.374 18.2473L140.261 5.996H142.887L145.879 15.412L148.855 5.996H151.497L147.367 18.2473H144.374Z" fill="white"/>
<path d="M155.093 15.937H159.766V18.2473H152.678V5.996H155.093V15.937Z" fill="white"/>
<path d="M163.554 15.937H168.717V18.2473H161.138V5.996H168.629V8.30624H163.554V10.914H168.192V13.1893H163.554V15.937Z" fill="white"/>
<path d="M178.523 5.996V8.30624H175.215V18.2473H172.799V8.30624H169.509V5.996H178.523Z" fill="white"/>
<path d="M188.429 18.4923C187.216 18.4923 186.195 18.2239 185.366 17.6872C184.538 17.1388 183.955 16.3979 183.616 15.4645L185.681 14.2569C186.16 15.5053 187.099 16.1296 188.499 16.1296C189.176 16.1296 189.672 16.007 189.987 15.762C190.302 15.517 190.459 15.2078 190.459 14.8344C190.459 14.4027 190.267 14.0702 189.882 13.8368C189.497 13.5918 188.808 13.3293 187.817 13.0492C187.268 12.8859 186.802 12.7225 186.417 12.5592C186.043 12.3958 185.664 12.18 185.279 11.9116C184.906 11.6316 184.62 11.2816 184.421 10.8615C184.223 10.4415 184.124 9.95142 184.124 9.39136C184.124 8.28291 184.515 7.40198 185.296 6.74858C186.09 6.08351 187.041 5.75098 188.149 5.75098C189.141 5.75098 190.01 5.996 190.757 6.48605C191.515 6.96444 192.105 7.63534 192.525 8.49876L190.494 9.67139C190.004 8.62128 189.223 8.09622 188.149 8.09622C187.648 8.09622 187.251 8.2129 186.959 8.44626C186.679 8.66795 186.539 8.95965 186.539 9.32135C186.539 9.70639 186.697 10.0214 187.012 10.2664C187.338 10.4998 187.957 10.7565 188.867 11.0365C189.24 11.1532 189.52 11.2466 189.707 11.3166C189.905 11.3749 190.168 11.4741 190.494 11.6141C190.833 11.7424 191.09 11.8649 191.265 11.9816C191.451 12.0983 191.661 12.2558 191.895 12.4542C192.128 12.6525 192.303 12.8567 192.42 13.0667C192.548 13.2768 192.653 13.5335 192.735 13.8368C192.828 14.1285 192.875 14.4494 192.875 14.7994C192.875 15.9312 192.461 16.8296 191.632 17.4947C190.815 18.1598 189.748 18.4923 188.429 18.4923Z" fill="white"/>
<path d="M202.138 18.2473L201.403 16.0421H196.52L195.785 18.2473H193.177L197.465 5.996H200.458L204.763 18.2473H202.138ZM197.29 13.7843H200.65L198.97 8.77879L197.29 13.7843Z" fill="white"/>
<path d="M212.673 18.2473L210.206 13.9943H208.368V18.2473H205.953V5.996H210.853C211.985 5.996 212.948 6.39271 213.741 7.18613C214.534 7.97954 214.931 8.93631 214.931 10.0564C214.931 10.8148 214.715 11.5207 214.284 12.1741C213.852 12.8159 213.28 13.3001 212.568 13.6268L215.281 18.2473H212.673ZM208.368 8.25374V11.8766H210.853C211.308 11.8766 211.699 11.7016 212.026 11.3516C212.353 10.9899 212.516 10.5581 212.516 10.0564C212.516 9.55471 212.353 9.12883 212.026 8.77879C211.699 8.42876 211.308 8.25374 210.853 8.25374H208.368Z" fill="white"/>
<path d="M224.579 18.2473L223.844 16.0421H218.961L218.226 18.2473H215.618L219.906 5.996H222.899L227.204 18.2473H224.579ZM219.731 13.7843H223.092L221.411 8.77879L219.731 13.7843Z" fill="white"/>
<path d="M236.501 5.996L232.3 13.4693V18.2473H229.902V13.4693L225.719 5.996H228.45L231.11 11.1065L233.77 5.996H236.501Z" fill="white"/>
<path d="M122.004 36.9392H126.677V39.2495H119.589V26.9982H122.004V36.9392Z" fill="white"/>
<path d="M128.049 26.9982H130.464V39.2495H128.049V26.9982Z" fill="white"/>
<path d="M140.135 32.8963C141.209 33.5147 141.746 34.4481 141.746 35.6966C141.746 36.735 141.378 37.5868 140.643 38.2519C139.908 38.9169 139.004 39.2495 137.93 39.2495H132.732V26.9982H137.563C138.613 26.9982 139.494 27.3249 140.205 27.9783C140.929 28.62 141.291 29.4426 141.291 30.4461C141.291 31.4612 140.906 32.2779 140.135 32.8963ZM137.563 29.2559H135.147V31.9512H137.563C137.936 31.9512 138.245 31.8229 138.49 31.5662C138.747 31.3095 138.875 30.9886 138.875 30.6036C138.875 30.2185 138.753 29.8977 138.508 29.641C138.263 29.3843 137.948 29.2559 137.563 29.2559ZM137.93 36.9917C138.339 36.9917 138.677 36.8576 138.945 36.5892C139.214 36.3092 139.348 35.9591 139.348 35.5391C139.348 35.1307 139.214 34.7923 138.945 34.524C138.677 34.2439 138.339 34.1039 137.93 34.1039H135.147V36.9917H137.93Z" fill="white"/>
<path d="M150.05 39.2495L147.582 34.9965H145.744V39.2495H143.329V26.9982H148.229C149.361 26.9982 150.324 27.3949 151.117 28.1883C151.911 28.9817 152.307 29.9385 152.307 31.0586C152.307 31.817 152.092 32.5229 151.66 33.1763C151.228 33.8181 150.656 34.3023 149.945 34.629L152.657 39.2495H150.05ZM145.744 29.2559V32.8788H148.229C148.685 32.8788 149.075 32.7038 149.402 32.3538C149.729 31.9921 149.892 31.5603 149.892 31.0586C149.892 30.5569 149.729 30.131 149.402 29.781C149.075 29.431 148.685 29.2559 148.229 29.2559H145.744Z" fill="white"/>
<path d="M161.955 39.2495L161.22 37.0442H156.337L155.602 39.2495H152.995L157.282 26.9982H160.275L164.581 39.2495H161.955ZM157.107 34.7865H160.468L158.788 29.781L157.107 34.7865Z" fill="white"/>
<path d="M172.491 39.2495L170.023 34.9965H168.186V39.2495H165.77V26.9982H170.671C171.803 26.9982 172.765 27.3949 173.559 28.1883C174.352 28.9817 174.749 29.9385 174.749 31.0586C174.749 31.817 174.533 32.5229 174.101 33.1763C173.669 33.8181 173.098 34.3023 172.386 34.629L175.099 39.2495H172.491ZM168.186 29.2559V32.8788H170.671C171.126 32.8788 171.517 32.7038 171.843 32.3538C172.17 31.9921 172.333 31.5603 172.333 31.0586C172.333 30.5569 172.17 30.131 171.843 29.781C171.517 29.431 171.126 29.2559 170.671 29.2559H168.186Z" fill="white"/>
<path d="M185.875 26.9982L181.675 34.4715V39.2495H179.277V34.4715L175.094 26.9982H177.824L180.485 32.1087L183.145 26.9982H185.875Z" fill="white"/>
</svg>
