<svg width="250" height="48" viewBox="0 0 250 48" fill="none" xmlns="http://www.w3.org/2000/svg">
<g clip-path="url(#clip0)">
<path fill-rule="evenodd" clip-rule="evenodd" d="M49.8747 33.7696H64.4167C65.8716 33.7696 67.4768 33.7391 68.6884 32.1268C69.6583 30.8488 69.7191 29.1449 69.7191 27.8975C69.7191 26.4363 69.5975 24.3386 68.266 23.0284C67.509 22.2681 66.267 21.781 65.3275 21.5366L58.1781 19.6206C57.3603 19.4067 56.3904 19.1335 56.3904 18.4648C56.3904 18.2221 56.5425 17.9777 56.7233 17.8861C56.8449 17.825 57.0561 17.7639 57.8436 17.7639H68.6293V12.4688H54.6314C52.8149 12.4688 51.6625 13.1392 50.995 13.8079C49.7531 15.0553 49.6618 16.7286 49.6618 18.0677C49.6618 19.6511 49.8139 21.4755 50.8142 22.8146C51.2383 23.3933 51.9953 24.0925 53.2373 24.4269L61.4478 26.7384C62.144 26.9217 62.8114 27.1338 62.8114 27.8042C62.8114 28.108 62.6289 28.4728 61.6303 28.4728H49.8764V33.7679L49.8747 33.7696ZM78.6393 33.7696V27.6226H87.5781C88.7288 27.6226 90.3054 27.3188 91.304 26.4668C93.0918 24.9156 93.2117 21.2634 93.2117 19.7716C93.2117 16.6981 92.6355 15.0247 91.6369 13.9606C90.4558 12.6827 88.8792 12.4705 87.1827 12.4705H75.4575C74.0027 12.4705 73.0936 13.0492 72.6407 13.5652C71.9141 14.3866 71.7925 15.6034 71.7925 16.4859V33.7696H78.6393ZM78.6393 22.3292V19.013C78.6393 18.5565 78.7306 17.7656 79.8205 17.7656H83.6072C84.3946 17.7656 85.182 17.7656 85.7583 18.2527C86.3023 18.7092 86.3632 19.3779 86.3632 19.926C86.3632 20.8086 86.1503 21.4178 85.8174 21.7827C85.2412 22.3903 84.3929 22.3309 83.5447 22.3309H78.636L78.6393 22.3292ZM120.221 33.7696H127.068V19.4373C127.068 18.9196 127.037 18.4937 127.461 18.0982C127.764 17.7944 128.129 17.7639 128.522 17.7639H132.309C132.946 17.7639 133.703 17.7333 134.219 18.2815C134.369 18.4343 134.732 18.9196 134.732 20.0771C134.732 20.6253 134.611 21.4161 134.278 21.8421C133.793 22.4208 132.975 22.4819 132.368 22.4819H131.277C129.519 22.4819 128.217 23.4561 128.217 24.8851V25.3416C128.217 26.3769 128.974 27.2899 129.671 28.2318L133.761 33.7696H142.002L135.942 27.4104V27.2882H136.851C138.487 27.2882 140.003 26.5279 140.79 24.6407C141.517 22.9062 141.577 20.3809 141.577 19.4067C141.577 17.7944 141.397 15.9072 140.488 14.5376C139.094 12.4688 136.76 12.4688 135.428 12.4688H123.886C123.068 12.4688 121.826 12.6216 121.039 13.5041C120.282 14.356 120.221 15.5729 120.221 16.547V33.7696ZM151.185 33.7696V17.7639H143.612V12.4688H165.612V17.7639H158.034V33.7696H151.187H151.185ZM106.434 12.4688C103.224 12.4688 99.4351 12.5605 97.1641 14.6598C94.8626 16.7897 94.7714 20.5014 94.7714 23.3628C94.7714 26.1613 94.8626 29.9052 97.1641 32.0657C99.4064 34.1701 103.284 34.2618 106.434 34.2618C109.585 34.2618 113.463 34.1701 115.704 32.0657C118.007 29.9052 118.097 26.163 118.097 23.3628C118.097 20.5031 118.007 16.7897 115.704 14.6598C113.431 12.5605 109.645 12.4688 106.434 12.4688ZM101.799 23.3628C101.799 21.5977 101.829 20.442 102.586 19.3151C103.496 17.9149 104.677 17.7639 106.434 17.7639C108.222 17.7639 109.342 17.9166 110.282 19.3151C111.099 20.5014 111.069 21.5061 111.069 23.3628C111.069 25.0667 111.069 26.253 110.282 27.4104C109.342 28.8106 108.222 28.9616 106.434 28.9616C104.707 28.9616 103.496 28.8089 102.586 27.4104C101.889 26.3463 101.799 25.0378 101.799 23.3628Z" fill="white"/>
<path fill-rule="evenodd" clip-rule="evenodd" d="M6.63565 8.97228C4.11454 24.4553 24.3831 23.644 31.6152 28.8458C39.8714 34.4955 31.8636 47.202 16.5748 46.3433C5.72825 45.5948 0.829668 40.3184 0 31.9447C1.1372 34.1731 2.55659 35.8957 4.25817 37.1108C5.96144 38.326 7.94521 39.0337 10.2129 39.234C14.0351 39.2798 15.1098 37.5385 13.4386 34.0153C11.4565 31.1725 8.56197 29.6163 5.95468 27.3913C1.97532 23.9953 0.060831 19.7814 2.02432 14.617C2.89116 12.336 4.5015 10.498 6.63565 8.97398V8.97228Z" fill="white"/>
<path d="M44.6296 14.415C44.6296 14.4139 44.6295 14.4128 44.6294 14.4117C43.6312 12.6278 42.444 11.1473 41.1791 10.0109C39.0027 8.05074 33.4975 5.63572 30.9781 8.36811C29.7294 9.72243 30.7585 12.1816 33.3184 14.5576C33.9048 15.1024 34.535 15.637 35.1755 16.1563C39.4438 19.6133 44.0906 22.7938 43.3116 29.2616C42.9601 32.1705 41.1741 34.874 37.9551 37.3739C39.263 30.8993 35.9426 26.8007 30.2059 23.9444C26.9886 22.3423 23.1242 21.6278 18.6615 20.1089C16.6947 19.593 15.0978 18.9243 13.8271 18.1504C5.32939 12.9741 11.8316 3.39549 19.6737 1.19431C21.1083 0.792084 22.5175 0.454353 23.9082 0.257485C34.8127 -1.28674 44.0936 4.19026 44.6294 14.4117C44.6301 14.4128 44.6307 14.4139 44.6313 14.415H44.6296Z" fill="white"/>
<path fill-rule="evenodd" clip-rule="evenodd" d="M233.321 21.8488L228.051 12.6605H220.712L229.897 28.057V33.9596H236.744V28.057L245.925 12.6605H238.593L233.321 21.8488ZM211.81 33.9596V17.9539H219.384V12.6588H197.385V17.9539H204.963V33.9596H211.81ZM195.269 33.9596V12.6605H188.422V33.9596H195.269ZM186.241 33.9596V28.6645H180.364C178.091 28.6645 176.123 28.6645 175.214 26.9912C175.033 26.6263 174.7 25.8354 174.7 23.4611C174.7 22.4259 174.791 20.6914 175.396 19.6273C176.336 17.9233 178.002 17.9539 180.244 17.9539H185.91V12.6588H176.941C174.548 12.6588 171.457 12.9321 169.519 15.4269C168.005 17.3446 167.671 20.021 167.671 23.5816C167.671 27.6581 168.336 29.7592 169.609 31.3409C171.337 33.5014 173.546 33.9579 176.851 33.9579H186.241V33.9596Z" fill="white"/>
</g>
<defs>
<clipPath id="clip0">
<rect width="250" height="47.1042" fill="white"/>
</clipPath>
</defs>
</svg>
