<svg width="267" height="46" viewBox="0 0 267 46" fill="none" xmlns="http://www.w3.org/2000/svg">
<g clip-path="url(#clip0)">
<path d="M89.363 7.60946H72.6597L77.0002 0.09375H121.873L117.532 7.60946H100.851L84.5131 35.9264H73.0306L89.363 7.60946Z" fill="white"/>
<path d="M126.584 0.09375H138.066L126.224 20.18C125.604 21.2083 125.049 22.2746 124.563 23.3725C124.196 24.1318 123.987 24.9576 123.949 25.8001C123.933 26.1909 124.025 26.5783 124.215 26.9203C124.404 27.2623 124.684 27.5458 125.023 27.74C125.735 28.1834 126.925 28.4051 128.594 28.4051H133.958C135.273 28.423 136.588 28.3377 137.889 28.1502C138.863 28.0118 139.801 27.6922 140.657 27.2079C141.482 26.7142 142.216 26.0824 142.828 25.3401C143.617 24.3784 144.326 23.3533 144.948 22.2751L158.235 0.104829H169.723L155.273 24.226C154.085 26.2533 152.728 28.1761 151.215 29.9737C150.005 31.4127 148.555 32.6315 146.93 33.5763C145.298 34.4936 143.518 35.1164 141.671 35.4165C139.384 35.7857 137.071 35.9582 134.756 35.9319H122.958C119.591 35.9319 116.921 35.3001 114.946 34.0364C112.972 32.7727 111.979 30.879 111.968 28.3552C111.996 27.0319 112.237 25.7218 112.682 24.4755C113.269 22.833 114.011 21.25 114.897 19.7477L126.584 0.09375Z" fill="white"/>
<path d="M222.519 0.09375H234.007L225.586 14.7095L250.378 0.09375H265.791L237.716 16.3944L251.109 35.9264H238.702L229.057 21.4603L217.985 27.8509L213.334 35.9264H201.896L222.519 0.09375Z" fill="white"/>
<path d="M16.6922 16.8774H0L4.34054 9.36719H49.1853L44.8503 16.8774H28.1802L11.8423 45.1887H0.359871L16.6922 16.8774Z" fill="white"/>
<path d="M63.5745 14.5156L65.5732 18.5617L70.03 19.2102L66.8022 22.3583L67.5663 26.7979L63.5745 24.7028L59.5883 26.7979L60.3524 22.3583L57.1246 19.2102L61.5814 18.5617L63.5745 14.5156Z" fill="white"/>
<path d="M39.1975 7.51018H22.5052L26.8402 0H71.7127L67.3722 7.51018H50.6799L34.3476 35.8216H22.8596L39.1975 7.51018Z" fill="white"/>
<path d="M208.495 1.8341C206.469 0.673862 203.601 0.09375 199.891 0.09375H175.637L155.019 35.9264H166.418L182.79 7.615H196.88C197.604 7.55469 198.331 7.70479 198.972 8.04732C199.169 8.17864 199.328 8.3581 199.436 8.56863C199.544 8.77916 199.596 9.01373 199.587 9.25005C199.571 9.72545 199.466 10.1936 199.277 10.6301C199.033 11.2062 198.744 11.7622 198.413 12.2929L197.228 14.3104C196.828 14.9952 196.339 15.6234 195.772 16.1782C195.292 16.6321 194.728 16.9879 194.111 17.2258C193.4 17.4823 192.653 17.6281 191.897 17.6581C191.061 17.7135 190.064 17.7357 188.913 17.7357H183.609C182.502 17.7357 181.572 17.769 180.774 17.841L179.877 17.9297L175.692 25.3678C176.438 25.2849 177.189 25.246 177.94 25.2514H183.388L188.714 35.9264H200.34L194.804 24.8413C196.297 24.6426 197.767 24.2992 199.194 23.8159C200.382 23.4102 201.521 22.871 202.588 22.2085C203.576 21.5905 204.469 20.8326 205.24 19.9583C206.052 19.0308 206.779 18.0308 207.41 16.9708L209.303 13.7007C210.798 11.1438 211.546 8.91196 211.546 7.00532C211.58 5.94229 211.312 4.89132 210.772 3.9755C210.231 3.05968 209.442 2.3169 208.495 1.8341Z" fill="white"/>
</g>
<defs>
<clipPath id="clip0">
<rect width="267" height="46" fill="white"/>
</clipPath>
</defs>
</svg>
