<?xml version="1.0" encoding="UTF-8"?><!DOCTYPE svg PUBLIC "-//W3C//DTD SVG 1.1//EN" "http://www.w3.org/Graphics/SVG/1.1/DTD/svg11.dtd"><svg xmlns="http://www.w3.org/2000/svg" xmlns:xlink="http://www.w3.org/1999/xlink" xmlns:sketch="http://www.bohemiancoding.com/sketch/ns"><defs>
<clippath id="clip0">
<rect width="17.2414" height="20" transform="translate(0 0.5)"/>
</clippath>

<clippath id="clip0">
<rect width="18.5185" height="20" transform="translate(0 0.5)"/>
</clippath>

<clippath id="clip0">
<rect width="20" height="20" transform="translate(0 0.5)"/>
</clippath>
</defs><symbol id="icon-as" viewBox="0 0 18 21">
<g clip-path="url(#clip0)">
<path d="M16.3299 16.0282C16.0413 16.696 15.6993 17.3106 15.303 17.8758C14.763 18.6472 14.3194 19.1802 13.9795 19.4769C13.4515 19.9617 12.8842 20.2111 12.2778 20.2252C11.8433 20.2252 11.3183 20.1015 10.7068 19.8501C10.0933 19.5996 9.53005 19.4769 9.01411 19.4769C8.47402 19.4769 7.89471 19.5996 7.27416 19.8501C6.65462 20.1015 6.15376 20.2333 5.77057 20.2453C5.19026 20.2705 4.60994 20.015 4.03164 19.4769C3.66253 19.1551 3.20089 18.6019 2.64672 17.8195C2.05333 16.9857 1.56554 16.0152 1.18336 14.9119C0.77402 13.718 0.568848 12.5634 0.568848 11.445C0.568848 10.1647 0.845428 9.05941 1.3996 8.13412C1.83609 7.38987 2.4154 6.80352 3.13954 6.37306C3.86468 5.94159 4.64916 5.72133 5.49299 5.70725C5.95563 5.70725 6.5621 5.85007 7.31339 6.13168C8.06468 6.41329 8.54744 6.5561 8.75764 6.5561C8.91655 6.5561 9.4506 6.38814 10.3598 6.05524C11.2177 5.74648 11.9418 5.61875 12.5352 5.66903C14.1444 5.79878 15.3523 6.4324 16.1559 7.57493C14.7177 8.44691 14.0066 9.66688 14.0207 11.2328C14.0328 12.4528 14.4763 13.4676 15.3453 14.2732C15.7395 14.6473 16.179 14.936 16.6678 15.1412C16.5612 15.4499 16.4486 15.7446 16.3299 16.0282ZM12.6418 1.51429C12.6418 2.46975 12.2918 3.36286 11.5969 4.18858C10.7561 5.17018 9.74026 5.73843 8.63896 5.64892C8.62488 5.53427 8.61784 5.41358 8.61784 5.28685C8.61784 4.3686 9.01612 3.38699 9.72718 2.5834C10.0812 2.17708 10.5318 1.83814 11.0779 1.5686C11.623 1.30309 12.138 1.15625 12.6227 1.1311C12.6358 1.25984 12.6418 1.38757 12.6418 1.51429Z"/>
</g>

</symbol><symbol id="icon-bck" viewBox="0 0 240 240"><path d="M57.633 129.007L165.93 237.268c4.752 4.74 12.451 4.74 17.215 0 4.752-4.74 4.752-12.439 0-17.179l-99.707-99.671 99.695-99.671c4.752-4.74 4.752-12.439 0-17.191-4.752-4.74-12.463-4.74-17.215 0L57.621 111.816c-4.679 4.691-4.679 12.511.012 17.191z"/></symbol><symbol id="icon-facebook" viewBox="0 0 10 19">
    <!-- Generator: Sketch 3.3.3 (12072) - http://www.bohemiancoding.com/sketch -->
    <title>facebook</title>
    <desc>Created with Sketch.</desc>
    
    <g id="Page-1" stroke-width="1" fill-rule="evenodd" sketch:type="MSPage">
        <path d="M9.76616526,0.156928571 L9.76616526,3.10335714 L8.01393311,3.10335714 C7.37405216,3.10335714 6.94250454,3.23728571 6.71929026,3.50514286 C6.49607597,3.773 6.38446883,4.17478571 6.38446883,4.7105 L6.38446883,6.819875 L9.65455811,6.819875 L9.21929026,10.1234464 L6.38446883,10.1234464 L6.38446883,18.5944286 L2.96929026,18.5944286 L2.96929026,10.1234464 L0.123308113,10.1234464 L0.123308113,6.819875 L2.96929026,6.819875 L2.96929026,4.38683929 C2.96929026,3.00291071 3.35619502,1.92962202 4.13000454,1.16697321 C4.90381407,0.404324405 5.93432002,0.023 7.2215224,0.023 C8.3152724,0.023 9.16348668,0.0676428571 9.76616526,0.156928571 L9.76616526,0.156928571 Z" id="facebook" sketch:type="MSShapeGroup"/>
    </g>
</symbol><symbol id="icon-gp" viewBox="0 0 19 21">
<g clip-path="url(#clip0)">
<path d="M10.2897 10.0853L13.484 6.891L3.16657 1.09223C2.48277 0.72279 1.84219 0.670939 1.28046 1.07495L10.2897 10.0853ZM14.0285 13.8251L17.3491 11.9574C17.9973 11.5944 18.3527 11.0802 18.3527 10.5098C18.3527 9.94054 17.9973 9.42526 17.3502 9.0623L14.3439 7.37387L10.9595 10.7572L14.0285 13.8251ZM0.725212 1.86029C0.656076 2.0731 0.617188 2.31075 0.617188 2.57109V18.4561C0.617188 18.8677 0.707928 19.222 0.872126 19.504L9.61889 10.7561L0.725212 1.86029ZM10.2897 11.4259L1.59157 20.1251C1.75793 20.1888 1.93725 20.2223 2.12629 20.2223C2.46333 20.2223 2.81441 20.1229 3.17197 19.9242L13.1697 14.3101L10.2897 11.4259Z"/>
</g>

</symbol><symbol id="icon-instagram" viewBox="0 0 511 511"><path d="M510.95 150.5c-1.2-27.2-5.598-45.898-11.9-62.102-6.5-17.199-16.5-32.597-29.6-45.398-12.802-13-28.302-23.102-45.302-29.5-16.296-6.3-34.898-10.7-62.097-11.898C334.648.3 325.949 0 256.449 0s-78.199.3-105.5 1.5c-27.199 1.2-45.898 5.602-62.097 11.898-17.204 6.5-32.602 16.5-45.403 29.602-13 12.8-23.097 28.3-29.5 45.3-6.3 16.302-10.699 34.9-11.898 62.098C.75 177.801.449 186.5.449 256s.301 78.2 1.5 105.5c1.2 27.2 5.602 45.898 11.903 62.102 6.5 17.199 16.597 32.597 29.597 45.398 12.801 13 28.301 23.102 45.301 29.5 16.3 6.3 34.898 10.7 62.102 11.898 27.296 1.204 36 1.5 105.5 1.5s78.199-.296 105.5-1.5c27.199-1.199 45.898-5.597 62.097-11.898a130.934 130.934 0 0 0 74.903-74.898c6.296-16.301 10.699-34.903 11.898-62.102 1.2-27.3 1.5-36 1.5-105.5s-.102-78.2-1.3-105.5zm-46.098 209c-1.102 25-5.301 38.5-8.801 47.5-8.602 22.3-26.301 40-48.602 48.602-9 3.5-22.597 7.699-47.5 8.796-27 1.204-35.097 1.5-103.398 1.5s-76.5-.296-103.403-1.5c-25-1.097-38.5-5.296-47.5-8.796C94.551 451.5 84.45 445 76.25 436.5c-8.5-8.3-15-18.3-19.102-29.398-3.5-9-7.699-22.602-8.796-47.5-1.204-27-1.5-35.102-1.5-103.403s.296-76.5 1.5-103.398c1.097-25 5.296-38.5 8.796-47.5C61.25 94.199 67.75 84.1 76.352 75.898c8.296-8.5 18.296-15 29.398-19.097 9-3.5 22.602-7.7 47.5-8.801 27-1.2 35.102-1.5 103.398-1.5 68.403 0 76.5.3 103.403 1.5 25 1.102 38.5 5.3 47.5 8.8 11.097 4.098 21.199 10.598 29.398 19.098 8.5 8.301 15 18.301 19.102 29.403 3.5 9 7.699 22.597 8.8 47.5 1.2 27 1.5 35.097 1.5 103.398s-.3 76.301-1.5 103.301zm0 0"/><path d="M256.45 124.5c-72.598 0-131.5 58.898-131.5 131.5s58.902 131.5 131.5 131.5c72.6 0 131.5-58.898 131.5-131.5s-58.9-131.5-131.5-131.5zm0 216.8c-47.098 0-85.302-38.198-85.302-85.3s38.204-85.3 85.301-85.3c47.102 0 85.301 38.198 85.301 85.3s-38.2 85.3-85.3 85.3zm0 0M423.852 119.3c0 16.954-13.747 30.7-30.704 30.7-16.953 0-30.699-13.746-30.699-30.7 0-16.956 13.746-30.698 30.7-30.698 16.956 0 30.703 13.742 30.703 30.699zm0 0"/></symbol><symbol id="icon-lamp" viewBox="0 0 512 512"><path d="M308.191 107.379c-26.398-26.727-61.609-41.711-99.144-42.2-38.074-.495-74.07 14.036-101.379 40.91-27.293 26.86-42.387 62.602-42.5 100.645a142.003 142.003 0 0 0 48.644 107.43c22.47 19.617 35.356 47.516 35.356 76.531v71.637c0 27.387 22.281 49.668 49.668 49.668h16.668c27.383 0 49.664-22.281 49.664-49.668v-70.719c0-29.843 12.64-57.86 34.684-76.867 31.34-27.02 49.316-66.234 49.316-107.578 0-37.602-14.55-73.043-40.977-99.79zM207.043 279.152h-6.633c-3.625 0-6.574-2.949-6.574-6.578A6.582 6.582 0 0 1 200.41 266a6.642 6.642 0 0 1 6.633 6.633zm.125 59.434c5.516 0 10 4.484 10 10v34h-20v-34c0-5.516 4.484-10 10-10zm38 64v14.707h-76v-14.707zm-76 34.707h76V452h-76zM215.5 492h-16.664c-12.977 0-24.024-8.375-28.043-20h72.75c-4.02 11.625-15.066 20-28.043 20zm71.293-192.398c-24.207 20.87-38.969 50.726-41.3 82.984h-8.325v-34c0-8.93-3.926-16.953-10.133-22.453 0-.043.008-.086.008-.133v-32.867c8.144-5.844 13.457-15.39 13.457-26.156v-15.489c0-21.304-17.332-38.64-38.64-38.64h-18.024c-5.524 0-10 4.476-10 10 0 5.523 4.476 10 10 10h18.023c10.282 0 18.641 8.363 18.641 18.64v3.68c-4.887-5.613-12.078-9.168-20.09-9.168-14.652 0-26.574 11.922-26.574 26.578 0 14.652 11.922 26.574 26.574 26.574h6.633v19.438c-16.484.066-29.875 13.496-29.875 29.996v34h-8.277c-2.192-31.832-17.196-61.899-41.922-83.488a121.985 121.985 0 0 1-41.801-92.301c.098-32.664 13.07-63.367 36.531-86.453 23.473-23.102 54.375-35.594 87.086-35.164 66.38.86 120.383 55.586 120.383 121.988 0 35.523-15.445 69.21-42.375 92.434zm0 0"/><path d="M209.188 113.82h-.157c-5.511-.054-10 4.364-10.066 9.883-.063 5.524 4.41 10.055 9.933 10.117h.273c5.466 0 9.884-4.398 9.946-9.882.067-5.524-4.406-10.051-9.93-10.118zm0 0M253.176 125.555a10.002 10.002 0 1 0-9.73 17.476c23.269 12.957 37.722 37.531 37.722 64.137 0 5.523 4.477 10 10 10s10-4.477 10-10c0-33.856-18.39-65.125-47.992-81.613zm0 0M207.168 47c5.523 0 10-4.477 10-10V10c0-5.523-4.477-10-10-10s-10 4.477-10 10v27c0 5.523 4.477 10 10 10zm0 0M404.336 197.168h-27c-5.524 0-10 4.477-10 10s4.476 10 10 10h27c5.523 0 10-4.477 10-10s-4.477-10-10-10zm0 0M37 197.168H10c-5.523 0-10 4.477-10 10s4.477 10 10 10h27c5.523 0 10-4.477 10-10s-4.477-10-10-10zm0 0M334.566 320.426c-3.906-3.906-10.238-3.906-14.144 0-3.902 3.902-3.902 10.234 0 14.14l19.094 19.094a9.984 9.984 0 0 0 7.07 2.93c2.559 0 5.117-.98 7.07-2.93 3.906-3.906 3.906-10.238 0-14.144zm0 0M79.77 93.91c1.953 1.953 4.511 2.93 7.07 2.93s5.12-.977 7.07-2.93c3.906-3.902 3.906-10.234 0-14.14L74.82 60.676c-3.906-3.903-10.238-3.903-14.144 0-3.906 3.906-3.903 10.238 0 14.144zm0 0M339.516 60.68l-19.09 19.09c-3.906 3.906-3.906 10.238 0 14.144 1.953 1.953 4.512 2.93 7.07 2.93s5.117-.977 7.07-2.93l19.09-19.094c3.906-3.906 3.906-10.238 0-14.144-3.902-3.906-10.234-3.903-14.14.004zm0 0M79.77 320.426l-19.09 19.09c-3.907 3.906-3.907 10.238 0 14.144 1.953 1.95 4.511 2.93 7.07 2.93s5.117-.98 7.07-2.93l19.09-19.094c3.906-3.906 3.906-10.238 0-14.14-3.902-3.906-10.234-3.906-14.14 0zm0 0"/></symbol><symbol id="icon-logo" viewBox="0 0 34 39"><path d="M13.906 35.782a3.22 3.22 0 0 1 3.755-3.174l2.566-6.104h2.446l-3.566 6.739a3.21 3.21 0 0 1 1.244 2.539A3.22 3.22 0 0 1 17.128 39a3.22 3.22 0 0 1-3.222-3.218zm5.208.009a1.959 1.959 0 0 0-3.919 0 1.959 1.959 0 0 0 3.92 0zM9.978 23.394a1.845 1.845 0 0 1-.808-.808c-.189-.358-.285-.803-.286-1.336v-3.106h1.196v3.075c.002.295.049.542.143.741.093.199.227.35.403.45.174.101.385.151.629.151.245 0 .454-.048.63-.146a.973.973 0 0 0 .402-.436c.095-.194.142-.434.142-.722v-3.113h1.198v3.066c-.003.55-.1 1.005-.293 1.369a1.89 1.89 0 0 1-.825.815c-.357.181-.78.27-1.27.27-.489 0-.91-.09-1.26-.27zm10.438 0a1.845 1.845 0 0 1-.809-.808c-.189-.358-.285-.803-.286-1.336v-3.106h1.196v3.075c.002.295.05.542.144.741.092.199.227.35.402.45.175.101.385.151.629.151.245 0 .454-.048.63-.146a.973.973 0 0 0 .403-.436c.094-.194.141-.434.141-.722v-3.113h1.198v3.066c-.003.55-.1 1.005-.293 1.369a1.89 1.89 0 0 1-.825.815c-.357.181-.779.27-1.269.27-.49 0-.91-.09-1.261-.27zm-15.009.186v-2.143l-2.092-3.293h1.4l1.299 2.182 1.322-2.182h1.36l-2.09 3.27v2.165H5.407zm8.803 0v-.91l2.994-3.477h-2.901v-1.05h4.441v.91l-2.994 3.479h2.994v1.047H14.21zm10.601 0v-5.436h1.29l1.43 2.298 1.43-2.298h1.291v5.436h-1.189V20.03l-1.531 2.321H27.5l-1.517-2.297v3.524H24.81zM0 11.926A4.237 4.237 0 0 1 6.867 8.61l7.65-5.103A2.463 2.463 0 0 1 16.749 0a2.463 2.463 0 0 1 2.464 2.46 2.463 2.463 0 0 1-2.464 2.462c-.445 0-.863-.117-1.223-.323l-6.278 5.07L27 6.192a3.602 3.602 0 0 1 3.4-2.406A3.6 3.6 0 0 1 34 7.382c0 1.94-1.537 3.52-3.46 3.596l-1.995 4.058-.056.109h-3.308l2.466-5.44a3.785 3.785 0 0 1-.2-.261L8.391 12.758A4.237 4.237 0 0 1 0 11.927zm4.878 2.761c.137-.018.417-.115.382-.116.39-.184.482-.24.57-.3.116-.079.22-.161.272-.21.043-.037.045-.038.23-.227.036-.041.108-.128.209-.253.056-.056.206-.303.315-.57.005-.004.006-.008.008-.013a2.833 2.833 0 0 0-1.24-3.545.353.353 0 0 0-.104-.041 1.434 1.434 0 0 0-.434-.175.497.497 0 0 0-.186-.058 2.53 2.53 0 0 0-.663-.087 2.834 2.834 0 1 0 0 5.667c.164 0 .325-.013.64-.072zm1.487-.885l-.032.032c-.04.047-.034.04.032-.032zm26.497-6.42a2.463 2.463 0 0 0-2.464-2.461 2.463 2.463 0 0 0-2.463 2.46 2.463 2.463 0 0 0 2.463 2.461 2.463 2.463 0 0 0 2.464-2.46zM18.076 2.46a1.327 1.327 0 0 0-2.653 0 1.327 1.327 0 0 0 2.653 0z"/></symbol><symbol id="icon-next" viewBox="0 0 27 13">
<path d="M1.38757 7.55293C1.44895 7.56289 1.51106 7.56748 1.57321 7.56668H23.6694L23.4387 7.674C23.2131 7.78076 23.0079 7.92605 22.8323 8.1033L19.8648 11.0708C19.474 11.4439 19.4083 12.0441 19.7092 12.4929C20.0593 12.9711 20.7309 13.0749 21.2091 12.7247C21.2478 12.6964 21.2845 12.6656 21.319 12.6324L26.6852 7.26617C27.1046 6.84727 27.105 6.16774 26.6861 5.74837L26.6852 5.74753L21.319 0.381326C20.8993 -0.0372047 20.2198 -0.0362663 19.8012 0.383438C19.7683 0.416473 19.7375 0.451623 19.7092 0.488649C19.4083 0.937432 19.474 1.53761 19.8648 1.91069L22.8269 4.88357C22.9844 5.04121 23.1654 5.17338 23.3635 5.27531L23.6855 5.4202H1.63227C1.08401 5.39984 0.602997 5.78282 0.5 6.32172C0.405119 6.9068 0.802486 7.45801 1.38757 7.55293Z"/>
</symbol><symbol id="icon-nxt" viewBox="0 0 240 240"><path d="M183.189 111.816L74.892 3.555c-4.752-4.74-12.451-4.74-17.215 0-4.752 4.74-4.752 12.439 0 17.179l99.707 99.671-99.695 99.671c-4.752 4.74-4.752 12.439 0 17.191 4.752 4.74 12.463 4.74 17.215 0l108.297-108.261c4.68-4.691 4.68-12.511-.012-17.19z"/></symbol><symbol id="icon-twitter" viewBox="0 0 512 512"><path d="M512.002 97.211c-18.84 8.354-39.082 14.001-60.33 16.54 21.686-13 38.342-33.585 46.186-58.115a210.29 210.29 0 0 1-66.705 25.49c-19.16-20.415-46.461-33.17-76.674-33.17-58.011 0-105.042 47.029-105.042 105.039 0 8.233.929 16.25 2.72 23.939-87.3-4.382-164.701-46.2-216.509-109.753-9.042 15.514-14.223 33.558-14.223 52.809 0 36.444 18.544 68.596 46.73 87.433a104.614 104.614 0 0 1-47.577-13.139c-.01.438-.01.878-.01 1.321 0 50.894 36.209 93.348 84.261 103a105.245 105.245 0 0 1-27.674 3.687c-6.769 0-13.349-.66-19.764-1.888 13.368 41.73 52.16 72.104 98.126 72.949-35.95 28.176-81.243 44.967-130.458 44.967-8.479 0-16.84-.496-25.058-1.471 46.486 29.807 101.701 47.197 161.021 47.197 193.211 0 298.868-160.062 298.868-298.872 0-4.554-.104-9.084-.305-13.59 20.526-14.809 38.335-33.309 52.417-54.373z"/></symbol><symbol id="icon-web" viewBox="0 0 20 21">
<g clip-path="url(#clip0)">
<path d="M18.1507 4.72769C18.1504 4.72124 18.1497 4.7148 18.1486 4.70839C18.1236 4.67268 18.0929 4.64195 18.0671 4.60695C17.8804 4.35258 17.6827 4.10776 17.4741 3.87244C17.417 3.80813 17.3598 3.74454 17.3012 3.68166C17.0864 3.45161 16.8611 3.23224 16.6253 3.02363C16.5817 2.98503 16.541 2.94505 16.4974 2.90717C15.9163 2.40935 15.2801 1.97974 14.6011 1.62682C14.574 1.61254 14.5454 1.6004 14.5175 1.58608C14.2152 1.43244 13.9052 1.29433 13.5887 1.17238C13.5172 1.14667 13.4522 1.12235 13.3843 1.10091C13.1028 0.999477 12.817 0.91064 12.527 0.834404C12.4412 0.811546 12.3555 0.787976 12.2683 0.767965C11.9825 0.701526 11.6967 0.650786 11.4045 0.60934C11.3159 0.596488 11.2287 0.579323 11.1394 0.568606C10.3867 0.477131 9.62574 0.477131 8.87301 0.568606C8.78371 0.579323 8.69655 0.596488 8.60792 0.60934C8.31571 0.650786 8.02705 0.701526 7.74409 0.767965C7.65693 0.787976 7.57119 0.811546 7.48545 0.834404C7.19344 0.910598 6.90767 0.999435 6.62806 1.10091C6.5566 1.1252 6.49158 1.14952 6.42372 1.17238C6.10726 1.29433 5.79721 1.4324 5.49487 1.58608C5.46699 1.60036 5.43843 1.6125 5.41126 1.62682C4.73008 1.97936 4.09169 2.40893 3.50856 2.90717C3.46498 2.94501 3.42424 2.98503 3.38066 3.02363C3.14249 3.23321 2.91718 3.45258 2.70476 3.68166C2.64619 3.74454 2.589 3.80813 2.53186 3.87244C2.32274 4.10726 2.12506 4.35208 1.93884 4.60691C1.91314 4.64191 1.88241 4.67264 1.85737 4.70835C1.85411 4.71459 1.85122 4.72103 1.84879 4.72765C-0.615613 8.18136 -0.615613 12.8187 1.84879 16.2724C1.85122 16.279 1.85407 16.2854 1.85737 16.2917C1.88237 16.3274 1.9131 16.3581 1.93884 16.3931C2.1251 16.6475 2.32274 16.8923 2.53186 17.1276C2.589 17.1919 2.64619 17.2555 2.70476 17.3184C2.92007 17.5484 3.14534 17.7678 3.38066 17.9764C3.42424 18.015 3.46498 18.055 3.50856 18.0929C4.08964 18.5907 4.7259 19.0203 5.40482 19.3732C5.43199 19.3875 5.46054 19.3997 5.48842 19.414C5.79077 19.5676 6.10078 19.7057 6.41727 19.8277C6.48874 19.8534 6.55375 19.8777 6.62161 19.8991C6.90311 20.0006 7.18892 20.0894 7.479 20.1657C7.56474 20.1885 7.65048 20.2121 7.73764 20.2321C8.02345 20.2985 8.30922 20.3493 8.60148 20.3907C8.69006 20.4036 8.77722 20.4207 8.86656 20.4315C9.61925 20.5229 10.3802 20.5229 11.1329 20.4315C11.2222 20.4207 11.3094 20.4036 11.398 20.3907C11.6903 20.3493 11.9789 20.2985 12.2619 20.2321C12.349 20.2121 12.4348 20.1885 12.5205 20.1657C12.813 20.0895 13.0988 20.0006 13.3779 19.8991C13.4494 19.8749 13.5144 19.8505 13.5822 19.8277C13.8987 19.7057 14.2087 19.5677 14.5111 19.414C14.539 19.3997 14.5675 19.3876 14.5947 19.3732C15.2736 19.0203 15.9099 18.5907 16.491 18.0929C16.5345 18.055 16.5753 18.015 16.6189 17.9764C16.857 17.7673 17.0823 17.548 17.2948 17.3184C17.3533 17.2555 17.4105 17.1919 17.4677 17.1276C17.6768 16.8923 17.8745 16.6475 18.0607 16.3931C18.0864 16.3581 18.1171 16.3274 18.1421 16.2917C18.1454 16.2854 18.1483 16.279 18.1507 16.2724C20.6151 12.8187 20.6151 8.1814 18.1507 4.72769ZM17.3355 6.07954C18.0188 7.20491 18.4314 8.47357 18.5408 9.78561H14.261C14.2086 8.93425 14.0747 8.08992 13.8609 7.26419C15.0699 7.03778 16.24 6.63881 17.3355 6.07954ZM11.821 2.12338C11.8611 2.13267 11.8996 2.14552 11.9396 2.15482C12.1954 2.21485 12.4491 2.28342 12.697 2.36916C12.7349 2.38201 12.772 2.39704 12.8092 2.41061C13.055 2.49635 13.2972 2.59138 13.5344 2.69642C13.5759 2.71572 13.6166 2.73715 13.6581 2.75645C13.8853 2.86459 14.1072 2.98152 14.324 3.10728L14.4668 3.19373C14.6726 3.31949 14.8727 3.45404 15.067 3.59743C15.117 3.63385 15.167 3.66889 15.2163 3.70887C15.4069 3.85176 15.5893 4.0049 15.7636 4.1683C15.8094 4.20974 15.8565 4.25048 15.9015 4.29335C16.0844 4.46696 16.2588 4.65058 16.4274 4.84064C16.4488 4.86563 16.4717 4.88849 16.4931 4.9121C15.5257 5.37316 14.5008 5.70238 13.4458 5.89094C12.9571 4.54742 12.3115 3.26628 11.5225 2.07414C11.6217 2.09198 11.7232 2.10198 11.821 2.12338ZM7.17113 9.78557C7.22748 9.0125 7.3591 8.24675 7.56411 7.49921C8.37365 7.59538 9.18817 7.64306 10.0034 7.6421C10.8194 7.64185 11.6347 7.59295 12.4448 7.49561C12.6495 8.24436 12.7804 9.01132 12.8356 9.78557H7.17113ZM12.8356 11.2146C12.7793 11.9876 12.6477 12.7534 12.4426 13.5009C11.6331 13.4048 10.8186 13.3571 10.0034 13.358C9.18741 13.3571 8.37218 13.4048 7.56194 13.5009C7.35751 12.7534 7.22664 11.9876 7.17109 11.2146H12.8356ZM10.0034 2.39206C10.8165 3.54447 11.4852 4.79225 11.9946 6.10742C11.3332 6.17767 10.6685 6.21297 10.0034 6.21317C9.33892 6.21238 8.67495 6.17688 8.0142 6.10671C8.52428 4.79241 9.19223 3.54506 10.0034 2.39206ZM3.5801 4.83989C3.74802 4.64982 3.92306 4.4662 4.10597 4.29259C4.15097 4.24972 4.19815 4.20899 4.24387 4.16754C4.42012 4.00703 4.60256 3.85389 4.79116 3.70812C4.84048 3.67023 4.89047 3.63666 4.9405 3.59668C5.13483 3.45379 5.3349 3.3192 5.54067 3.19297L5.68355 3.10652C5.90029 2.97984 6.12225 2.86287 6.34945 2.7557C6.3909 2.7364 6.43163 2.71496 6.47308 2.69566C6.71028 2.58849 6.95251 2.49346 7.1983 2.40985C7.23543 2.39629 7.26976 2.38126 7.31045 2.36841C7.55838 2.28552 7.81061 2.21694 8.06783 2.15406C8.10785 2.14477 8.14641 2.13192 8.18714 2.12333C8.28502 2.1019 8.3865 2.09189 8.4858 2.07402C7.6964 3.26636 7.0506 4.54776 6.56166 5.89153C5.50672 5.70297 4.48178 5.37375 3.51438 4.91269C3.53581 4.88774 3.55867 4.86488 3.5801 4.83989ZM2.67126 6.07954C3.76649 6.63877 4.93639 7.03774 6.14511 7.26419C5.93164 8.08997 5.79788 8.93429 5.74572 9.78561H1.46594C1.57537 8.47357 1.98799 7.20491 2.67126 6.07954ZM2.67126 14.9206C1.98795 13.7953 1.57533 12.5266 1.46594 11.2146H5.74572C5.79814 12.0659 5.9321 12.9103 6.14582 13.736C4.9369 13.9624 3.76674 14.3613 2.67126 14.9206ZM8.18572 18.8768C8.1457 18.8675 8.10714 18.8546 8.06712 18.8453C7.81132 18.7853 7.55766 18.7167 7.30974 18.631C7.27185 18.6181 7.23472 18.6031 7.19755 18.5895C6.95176 18.5038 6.70957 18.4088 6.47232 18.3037C6.43088 18.2844 6.39014 18.263 6.3487 18.2437C6.1215 18.1356 5.89953 18.0186 5.6828 17.8929L5.53991 17.8064C5.33415 17.6807 5.13408 17.5461 4.93974 17.4027C4.88971 17.3663 4.83973 17.3313 4.79041 17.2913C4.59989 17.1484 4.41744 16.9952 4.24311 16.8319C4.1974 16.7904 4.15022 16.7497 4.10521 16.7068C3.92231 16.5332 3.74798 16.3496 3.57935 16.1595C3.55792 16.1345 3.53506 16.1117 3.51362 16.088C4.48107 15.627 5.50596 15.2978 6.56091 15.1092C7.04964 16.4527 7.69523 17.7339 8.4843 18.926C8.38504 18.9082 8.2836 18.8982 8.18572 18.8768ZM10.0034 18.6081C9.19026 17.4557 8.52151 16.2079 8.01206 14.8928C9.33528 14.7503 10.67 14.7503 11.9932 14.8928L11.9925 14.8935C11.4825 16.2077 10.8145 17.4551 10.0034 18.6081ZM16.4266 16.1603C16.2587 16.3503 16.0837 16.5339 15.9008 16.7076C15.8558 16.7504 15.8086 16.7912 15.7629 16.8326C15.5866 16.9936 15.4042 17.1468 15.2156 17.292C15.1663 17.3299 15.1163 17.367 15.0663 17.4035C14.8719 17.5464 14.6719 17.6809 14.4661 17.8072L14.3232 17.8936C14.1069 18.0198 13.885 18.1368 13.6573 18.2444C13.6159 18.2637 13.5751 18.2852 13.5337 18.3045C13.2965 18.4117 13.0542 18.5067 12.8085 18.5903C12.7713 18.6039 12.737 18.6189 12.6963 18.6317C12.4484 18.7146 12.1961 18.7832 11.9389 18.8461C11.8989 18.8554 11.8603 18.8682 11.8196 18.8768C11.7217 18.8982 11.6203 18.9083 11.521 18.9261C12.31 17.734 12.9557 16.4528 13.4443 15.1093C14.4993 15.2979 15.5242 15.6271 16.4916 16.0882C16.4709 16.1124 16.4481 16.1353 16.4266 16.1603ZM17.3355 14.9206C16.2403 14.3614 15.0704 13.9624 13.8616 13.736C14.0751 12.9102 14.2089 12.0659 14.261 11.2146H18.5408C18.4314 12.5266 18.0188 13.7952 17.3355 14.9206Z"/>
</g>

</symbol></svg>